<svg width="55" height="55" viewBox="0 0 55 55" fill="none" xmlns="http://www.w3.org/2000/svg">
<path d="M27.5 24.4444C29.1806 24.4444 30.6192 23.8461 31.816 22.6493C33.0127 21.4525 33.6111 20.0139 33.6111 18.3333C33.6111 16.6528 33.0127 15.2141 31.816 14.0174C30.6192 12.8206 29.1806 12.2222 27.5 12.2222C25.8194 12.2222 24.3808 12.8206 23.184 14.0174C21.9873 15.2141 21.3889 16.6528 21.3889 18.3333C21.3889 20.0139 21.9873 21.4525 23.184 22.6493C24.3808 23.8461 25.8194 24.4444 27.5 24.4444ZM12.2222 55V48.8889H24.4444V39.4167C21.9491 38.8565 19.7211 37.7998 17.7604 36.2465C15.7998 34.6933 14.3611 32.7454 13.4444 30.4028C9.625 29.9444 6.4294 28.2766 3.85764 25.3993C1.28588 22.522 0 19.1481 0 15.2778V12.2222C0 10.5417 0.59838 9.10301 1.79514 7.90625C2.9919 6.70949 4.43056 6.11111 6.11111 6.11111H12.2222V0H42.7778V6.11111H48.8889C50.5694 6.11111 52.0081 6.70949 53.2049 7.90625C54.4016 9.10301 55 10.5417 55 12.2222V15.2778C55 19.1481 53.7141 22.522 51.1424 25.3993C48.5706 28.2766 45.375 29.9444 41.5556 30.4028C40.6389 32.7454 39.2002 34.6933 37.2396 36.2465C35.2789 37.7998 33.0509 38.8565 30.5556 39.4167V48.8889H42.7778V55H12.2222ZM12.2222 23.8333V12.2222H6.11111V15.2778C6.11111 17.213 6.6713 18.9572 7.79167 20.5104C8.91204 22.0637 10.3889 23.1713 12.2222 23.8333ZM27.5 33.6111C30.0463 33.6111 32.2106 32.7199 33.9931 30.9375C35.7755 29.1551 36.6667 26.9907 36.6667 24.4444V6.11111H18.3333V24.4444C18.3333 26.9907 19.2245 29.1551 21.0069 30.9375C22.7894 32.7199 24.9537 33.6111 27.5 33.6111ZM42.7778 23.8333C44.6111 23.1713 46.088 22.0637 47.2083 20.5104C48.3287 18.9572 48.8889 17.213 48.8889 15.2778V12.2222H42.7778V23.8333Z" fill="#EFC20E"/>
</svg>
