<svg width="50" height="55" viewBox="0 0 50 55" fill="none" xmlns="http://www.w3.org/2000/svg">
<path d="M25 0.625C25.8584 0.625 26.6776 0.846466 27.4668 1.29883L27.4688 1.2998L46.9111 12.3662V12.3672C47.7023 12.8207 48.3047 13.4098 48.7324 14.1357C49.1588 14.8593 49.3749 15.6656 49.375 16.5684V38.4316C49.3749 39.3344 49.1588 40.1407 48.7324 40.8643C48.305 41.5897 47.7034 42.1785 46.9131 42.6318L27.4688 53.7002L27.4668 53.7012C26.6776 54.1535 25.8584 54.375 25 54.375C24.1416 54.375 23.3224 54.1535 22.5332 53.7012L22.5312 53.7002L3.08691 42.6318C2.29656 42.1785 1.69504 41.5897 1.26758 40.8643C0.841225 40.1407 0.625062 39.3344 0.625 38.4316V16.5684C0.625062 15.6656 0.841225 14.8593 1.26758 14.1357C1.69534 13.4098 2.2977 12.8207 3.08887 12.3672L3.08789 12.3662L22.5312 1.2998L22.5332 1.29883C23.3224 0.846466 24.1416 0.625 25 0.625ZM44.1338 18.9824L27.4668 28.5391L27.1523 28.7188V48.9971L28.0889 48.4609L44.7549 38.9043L45.0693 38.7246V18.4463L44.1338 18.9824ZM24.6895 4.95801L8.23145 14.376L7.2832 14.9189L8.23145 15.4609L24.6895 24.8799L25 25.0576L25.3105 24.8799L41.7686 15.4609L42.7168 14.9189L41.7686 14.376L25.3105 4.95801L25 4.78027L24.6895 4.95801ZM22.8477 28.7188L22.5332 28.5391L5.86621 18.9824L4.93066 18.4463V38.7246L5.24512 38.9043L21.9111 48.4609L22.8477 48.9971V28.7188Z" fill="#519CFF" stroke="#EDF0F8" stroke-width="1.25"/>
</svg>
