<svg width="55" height="55" viewBox="0 0 55 55" fill="none" xmlns="http://www.w3.org/2000/svg">
<path d="M27.5 4.93262C28.2377 4.93262 28.9413 5.12586 29.6162 5.5166H29.6172L45.6582 14.7393V14.7402C46.3341 15.1316 46.852 15.6433 47.2207 16.2754C47.5887 16.9063 47.7754 17.6088 47.7754 18.3906V36.6094C47.7753 37.3912 47.5887 38.0937 47.2207 38.7246C46.8981 39.2775 46.4612 39.7378 45.9043 40.1064L45.6592 40.2588L29.6172 49.4824L29.6162 49.4834C28.9413 49.8741 28.2376 50.0664 27.5 50.0664C26.7624 50.0664 26.0587 49.8741 25.3838 49.4834L25.3828 49.4824L9.34082 40.2588H9.33984C8.66484 39.8676 8.14771 39.356 7.7793 38.7246C7.41129 38.0937 7.22466 37.3912 7.22461 36.6094V18.3906C7.22461 17.6088 7.41129 16.9063 7.7793 16.2754C8.14802 15.6433 8.66588 15.1316 9.3418 14.7402L9.34082 14.7393L25.3828 5.5166H25.3838C26.0587 5.12586 26.7623 4.93262 27.5 4.93262ZM43.3662 20.5508L29.6162 28.5146L29.4414 28.6152V45.1221L29.9668 44.8184L43.7168 36.8545L43.8916 36.7539V20.2471L43.3662 20.5508ZM27.3252 8.86328L13.7471 16.7119L13.2227 17.0156L13.7471 17.3184L27.3252 25.167L27.5 25.2686L27.6748 25.167L41.2529 17.3184L41.7773 17.0156L41.2529 16.7119L27.6748 8.86328L27.5 8.76172L27.3252 8.86328ZM25.5586 28.6152L25.3838 28.5146L11.6338 20.5508L11.1084 20.2471V36.7539L11.2832 36.8545L25.0332 44.8184L25.5586 45.1221V28.6152Z" fill="#519CFF" stroke="white" stroke-width="0.7"/>
</svg>
